<mxfile host="app.diagrams.net" modified="2023-04-30T12:57:38.311Z" agent="Mozilla/5.0 (Macintosh; Intel Mac OS X 10_15_7) AppleWebKit/605.1.15 (KHTML, like Gecko) Version/16.4 Safari/605.1.15" version="21.2.3" etag="ypgYNIGdxnxQwA49APfN" type="github">
  <diagram name="Page-1" id="-u5SpD1SxRLQmv9wwtZk">
    <mxGraphModel>
      <root>
        <mxCell id="0" />
        <mxCell id="1" parent="0" />
      </root>
    </mxGraphModel>
  </diagram>
</mxfile>
